<svg width="100%" class="mainSVG" xmlns="http://www.w3.org/2000/svg" fill="none" height="100%" viewBox="0 0 720 395"
    style="visibility: visible;">
    <defs>
        <circle id="circ" class="particle" cx="0" cy="0" r="1"></circle>
        <polygon id="star" class="particle"
            points="4.55,0 5.95,2.85 9.1,3.3 6.82,5.52 7.36,8.65 4.55,7.17 1.74,8.65 2.27,5.52 0,3.3 3.14,2.85 ">
        </polygon>
        <polygon id="cross" class="particle"
            points="4,3.5 2.5,2 4,0.5 3.5,0 2,1.5 0.5,0 0,0.5 1.5,2 0,3.5 0.5,4 2,2.5 3.5,4 "></polygon>
        <path id="heart" class="particle"
            d="M2.9,0C2.53,0,2.2,0.18,2,0.47C1.8,0.18,1.47,0,1.1,0C0.49,0,0,0.49,0,1.1 C0,2.6,1.56,4,2,4s2-1.4,2-2.9C4,0.49,3.51,0,2.9,0z">
        </path>
        <linearGradient id="paint0_linear_14_5" x1="162.84" y1="99.36" x2="167.11" y2="-19.28"
            gradientTransform="translate(0 143.62) scale(1 -1)" gradientUnits="userSpaceOnUse">
            <stop offset="0" stop-color="#0ba3f7"></stop>
            <stop offset="1" stop-color="#252250" stop-opacity="0"></stop>
        </linearGradient>
        <linearGradient id="paint1_linear_14_5" x1="343.82" y1="253.1" x2="357.34" y2="-47.48"
            gradientTransform="translate(0 386) scale(1 -1)" gradientUnits="userSpaceOnUse">
            <stop offset="0" stop-color="#0ba3f7"></stop>
            <stop offset="1" stop-color="#252250" stop-opacity="0"></stop>
        </linearGradient>
        <linearGradient id="paint0_linear_179_144929" x1="275.927" y1="13.0439" x2="18.4365" y2="141.889"
            gradientUnits="userSpaceOnUse">
            <stop stop-color="#1A50FF22"></stop>
            <stop offset="1" stop-color="#1EE9B622"></stop>
        </linearGradient>
        <linearGradient id="paint1_linear_179_144929" x1="150.57" y1="0.508789" x2="150.57" y2="163.465"
            gradientUnits="userSpaceOnUse">
            <stop stop-color="white" stop-opacity="0"></stop>
            <stop offset="1" stop-color="white"></stop>
        </linearGradient>
        <linearGradient id="paint0_linear_14_4" x1="152.433" y1="-23.5001" x2="243.805" y2="238.018"
            gradientUnits="userSpaceOnUse">
            <stop offset="0.302083" stop-color="#49CBFF"></stop>
            <stop offset="1" stop-color="#2777E4"></stop>
        </linearGradient>
    </defs>
    <g class="whole" height="100%">
        <g opacity="0.4" id="lineBackground">
            <path d="M662 18C543.547 257.742 295.655 383.57 0 385H662V18Z" fill="url(#paint1_linear_14_5)"
                opacity="0.5"></path>
        </g>
        <g class="pContainer" style="transform-origin: 0px 0px;" data-svg-origin="0 0"
            transform="matrix(0.45038,-0.89284,0.89284,0.45038,657.9962,20.0076)" opacity="1">

        </g>
        <g id="mainLine">
            <path class="linePath" fill="none" d="M-4 382C291.655 380.571 539.547 254.824 658 20"
                stroke="url(#paint0_linear_14_4)" stroke-width="5"></path>
        </g>
        <g class=" maskk" style="transform: translate(0px, -420px);">
            <rect class="head" width="1000" height="5000" fill="#1F1933" data-svg-origin="0 0"
                style="transform-origin: 0px 0px;" transform="matrix(1,0,0,1,657.99617,20.00759)"></rect>
        </g>
        <circle class="head" id="headCircle" cx="0" cy="0" r="10" fill="#fff"
            style="transform: matrix(1, 0, 0, 1, 657.996, 20.0076); opacity: 1; transform-origin: 0px 0px;"
            data-svg-origin="-10 -10" transform="matrix(1,0,0,1,657.99617,20.00759)"></circle>
    </g>









    <path id="heart" class="particle"
        d="M2.9,0C2.53,0,2.2,0.18,2,0.47C1.8,0.18,1.47,0,1.1,0C0.49,0,0,0.49,0,1.1 C0,2.6,1.56,4,2,4s2-1.4,2-2.9C4,0.49,3.51,0,2.9,0z"
        fill="#5DBA72" data-svg-origin="2 2" style="transform-origin: 0px 0px; opacity: 0.7439;"
        transform="matrix(0.11258,-0.0249,0.0249,0.11258,687.85864,318.43054)"></path>
    <polygon id="cross" class="particle"
        points="4,3.5 2.5,2 4,0.5 3.5,0 2,1.5 0.5,0 0,0.5 1.5,2 0,3.5 0.5,4 2,2.5 3.5,4 " fill="#B74551"
        data-svg-origin="2 2" style="transform-origin: 0px 0px; opacity: 0.6421;"
        transform="matrix(0.09149,-0.01611,0.01611,0.09149,618.1002,166.18904)"></polygon>
    <circle id="circ" class="particle" cx="0" cy="0" r="1" fill="#A2CBDC" data-svg-origin="0 0"
        style="transform-origin: 0px 0px; opacity: 0.8194;"
        transform="matrix(-0.07349,-0.04251,0.04251,-0.07349,524.6617,195.6614)"></circle>
    <path id="heart" class="particle"
        d="M2.9,0C2.53,0,2.2,0.18,2,0.47C1.8,0.18,1.47,0,1.1,0C0.49,0,0,0.49,0,1.1 C0,2.6,1.56,4,2,4s2-1.4,2-2.9C4,0.49,3.51,0,2.9,0z"
        fill="#F6FBFE" data-svg-origin="2 2" style="transform-origin: 0px 0px; opacity: 0.6164;"
        transform="matrix(0.09633,0.14056,-0.14056,0.09633,777.89136,311.33842)"></path>
    <polygon id="cross" class="particle"
        points="4,3.5 2.5,2 4,0.5 3.5,0 2,1.5 0.5,0 0,0.5 1.5,2 0,3.5 0.5,4 2,2.5 3.5,4 " fill="#ACE8F8"
        data-svg-origin="2 2" style="transform-origin: 0px 0px; opacity: 0.8129;"
        transform="matrix(0.01517,0.08262,-0.08262,0.01517,693.9537,125.33102)"></polygon>
    <circle id="circ" class="particle" cx="0" cy="0" r="1" fill="#E8F6F8" data-svg-origin="0 0"
        style="transform-origin: 0px 0px; opacity: 0.5365;"
        transform="matrix(0.05009,-0.09148,0.09148,0.05009,533.8865,271.5267)"></circle>
    <path id="heart" class="particle"
        d="M2.9,0C2.53,0,2.2,0.18,2,0.47C1.8,0.18,1.47,0,1.1,0C0.49,0,0,0.49,0,1.1 C0,2.6,1.56,4,2,4s2-1.4,2-2.9C4,0.49,3.51,0,2.9,0z"
        fill="#446D39" data-svg-origin="2 2" style="transform-origin: 0px 0px; opacity: 0.7676;"
        transform="matrix(0.01764,-0.12233,0.12233,0.01764,762.29146,223.29198)"></path>
    <polygon id="cross" class="particle"
        points="4,3.5 2.5,2 4,0.5 3.5,0 2,1.5 0.5,0 0,0.5 1.5,2 0,3.5 0.5,4 2,2.5 3.5,4 " fill="#910B28"
        data-svg-origin="2 2" style="transform-origin: 0px 0px; opacity: 0.5597;"
        transform="matrix(0.10517,0.17969,-0.17969,0.10517,545.00224,173.66508)"></polygon>
    <circle id="circ" class="particle" cx="0" cy="0" r="1" fill="#910B28" data-svg-origin="0 0"
        style="transform-origin: 0px 0px; opacity: 0.5431;"
        transform="matrix(-0.07635,-0.04455,0.04455,-0.07635,616.1236,321.2072)"></circle>
    <path id="heart" class="particle"
        d="M2.9,0C2.53,0,2.2,0.18,2,0.47C1.8,0.18,1.47,0,1.1,0C0.49,0,0,0.49,0,1.1 C0,2.6,1.56,4,2,4s2-1.4,2-2.9C4,0.49,3.51,0,2.9,0z"
        fill="#5DBA72" data-svg-origin="2 2" style="transform-origin: 0px 0px; opacity: 0.872;"
        transform="matrix(0.01752,0.1013,-0.1013,0.01752,549.37356,233.36446)"></path>
    <polygon id="cross" class="particle"
        points="4,3.5 2.5,2 4,0.5 3.5,0 2,1.5 0.5,0 0,0.5 1.5,2 0,3.5 0.5,4 2,2.5 3.5,4 " fill="#B74551"
        data-svg-origin="2 2" style="transform-origin: 0px 0px; opacity: 0.8362;"
        transform="matrix(0.10088,-0.09225,0.09225,0.10088,659.40994,324.42384)"></polygon>
    <circle id="circ" class="particle" cx="0" cy="0" r="1" fill="#A2CBDC" data-svg-origin="0 0"
        style="transform-origin: 0px 0px; opacity: 0.8188;"
        transform="matrix(-0.01992,-0.2479,0.2479,-0.01992,722.6266,232.8575)"></circle>
    <path id="heart" class="particle"
        d="M2.9,0C2.53,0,2.2,0.18,2,0.47C1.8,0.18,1.47,0,1.1,0C0.49,0,0,0.49,0,1.1 C0,2.6,1.56,4,2,4s2-1.4,2-2.9C4,0.49,3.51,0,2.9,0z"
        fill="#F6FBFE" data-svg-origin="2 2" style="transform-origin: 0px 0px; opacity: 0.5677;"
        transform="matrix(0.02552,0.29008,-0.29008,0.02552,787.02142,182.833)"></path>
    <polygon id="cross" class="particle"
        points="4,3.5 2.5,2 4,0.5 3.5,0 2,1.5 0.5,0 0,0.5 1.5,2 0,3.5 0.5,4 2,2.5 3.5,4 " fill="#ACE8F8"
        data-svg-origin="2 2" style="transform-origin: 0px 0px; opacity: 0.7382;"
        transform="matrix(0.0664,-0.13729,0.13729,0.0664,741.56412,218.34198)"></polygon>
    <circle id="circ" class="particle" cx="0" cy="0" r="1" fill="#E8F6F8" data-svg-origin="0 0"
        style="transform-origin: 0px 0px; opacity: 0.6562;"
        transform="matrix(0.08902,0.18466,-0.18466,0.08902,768.4127,135.0858)"></circle>
    <path id="heart" class="particle"
        d="M2.9,0C2.53,0,2.2,0.18,2,0.47C1.8,0.18,1.47,0,1.1,0C0.49,0,0,0.49,0,1.1 C0,2.6,1.56,4,2,4s2-1.4,2-2.9C4,0.49,3.51,0,2.9,0z"
        fill="#446D39" data-svg-origin="2 2" style="transform-origin: 0px 0px; opacity: 0.5686;"
        transform="matrix(-0.03508,-0.09535,0.09535,-0.03508,730.49516,228.51056)"></path>
    <polygon id="cross" class="particle"
        points="4,3.5 2.5,2 4,0.5 3.5,0 2,1.5 0.5,0 0,0.5 1.5,2 0,3.5 0.5,4 2,2.5 3.5,4 " fill="#910B28"
        data-svg-origin="2 2" style="transform-origin: 0px 0px; opacity: 0.6221;"
        transform="matrix(0.24294,0.10332,-0.10332,0.24294,730.54516,163.41088)"></polygon>
    <circle id="circ" class="particle" cx="0" cy="0" r="1" fill="#910B28" data-svg-origin="0 0"
        style="transform-origin: 0px 0px; opacity: 0.5056;"
        transform="matrix(0.18944,-0.09627,0.09627,0.18944,535.0373,165.6588)"></circle>
    <path id="heart" class="particle"
        d="M2.9,0C2.53,0,2.2,0.18,2,0.47C1.8,0.18,1.47,0,1.1,0C0.49,0,0,0.49,0,1.1 C0,2.6,1.56,4,2,4s2-1.4,2-2.9C4,0.49,3.51,0,2.9,0z"
        fill="#5DBA72" data-svg-origin="2 2" style="transform-origin: 0px 0px; opacity: 0.6307;"
        transform="matrix(0.31393,0.01524,-0.01524,0.31393,571.76412,66.71466)"></path>
    <polygon id="cross" class="particle"
        points="4,3.5 2.5,2 4,0.5 3.5,0 2,1.5 0.5,0 0,0.5 1.5,2 0,3.5 0.5,4 2,2.5 3.5,4 " fill="#B74551"
        data-svg-origin="2 2" style="transform-origin: 0px 0px; opacity: 0.7249;"
        transform="matrix(-0.13577,0.04125,-0.04125,-0.13577,578.97934,83.38324)"></polygon>
    <circle id="circ" class="particle" cx="0" cy="0" r="1" fill="#A2CBDC" data-svg-origin="0 0"
        style="transform-origin: 0px 0px; opacity: 0.7425;"
        transform="matrix(0.31163,-0.11128,0.11128,0.31163,643.9664,267.3448)"></circle>
    <path id="heart" class="particle"
        d="M2.9,0C2.53,0,2.2,0.18,2,0.47C1.8,0.18,1.47,0,1.1,0C0.49,0,0,0.49,0,1.1 C0,2.6,1.56,4,2,4s2-1.4,2-2.9C4,0.49,3.51,0,2.9,0z"
        fill="#F6FBFE" data-svg-origin="2 2" style="transform-origin: 0px 0px; opacity: 0.9119;"
        transform="matrix(0.02495,-0.25388,0.25388,0.02495,692.64224,58.75566)"></path>
    <polygon id="cross" class="particle"
        points="4,3.5 2.5,2 4,0.5 3.5,0 2,1.5 0.5,0 0,0.5 1.5,2 0,3.5 0.5,4 2,2.5 3.5,4 " fill="#ACE8F8"
        data-svg-origin="2 2" style="transform-origin: 0px 0px; opacity: 0.7167;"
        transform="matrix(-0.04052,-0.2914,0.2914,-0.04052,695.59134,216.14774)"></polygon>
    <circle id="circ" class="particle" cx="0" cy="0" r="1" fill="#E8F6F8" data-svg-origin="0 0"
        style="transform-origin: 0px 0px; opacity: 0.768;"
        transform="matrix(0.41203,0.01492,-0.01492,0.41203,666.4774,207.0794)"></circle>
    <path id="heart" class="particle"
        d="M2.9,0C2.53,0,2.2,0.18,2,0.47C1.8,0.18,1.47,0,1.1,0C0.49,0,0,0.49,0,1.1 C0,2.6,1.56,4,2,4s2-1.4,2-2.9C4,0.49,3.51,0,2.9,0z"
        fill="#446D39" data-svg-origin="2 2" style="transform-origin: 0px 0px; opacity: 0.8615;"
        transform="matrix(0.21059,-0.15351,0.15351,0.21059,728.3088,143.17984)"></path>
    <polygon id="cross" class="particle"
        points="4,3.5 2.5,2 4,0.5 3.5,0 2,1.5 0.5,0 0,0.5 1.5,2 0,3.5 0.5,4 2,2.5 3.5,4 " fill="#910B28"
        data-svg-origin="2 2" style="transform-origin: 0px 0px; opacity: 0.5324;"
        transform="matrix(-0.00667,-0.2208,0.2208,-0.00667,610.39334,149.24154)"></polygon>
    <circle id="circ" class="particle" cx="0" cy="0" r="1" fill="#910B28" data-svg-origin="0 0"
        style="transform-origin: 0px 0px; opacity: 0.8544;"
        transform="matrix(0.34812,0.0869,-0.0869,0.34812,557.9809,151.0109)"></circle>
    <path id="heart" class="particle"
        d="M2.9,0C2.53,0,2.2,0.18,2,0.47C1.8,0.18,1.47,0,1.1,0C0.49,0,0,0.49,0,1.1 C0,2.6,1.56,4,2,4s2-1.4,2-2.9C4,0.49,3.51,0,2.9,0z"
        fill="#5DBA72" data-svg-origin="2 2" style="transform-origin: 0px 0px; opacity: 0.7589;"
        transform="matrix(0.3135,-0.27421,0.27421,0.3135,583.65928,199.48222)"></path>
    <polygon id="cross" class="particle"
        points="4,3.5 2.5,2 4,0.5 3.5,0 2,1.5 0.5,0 0,0.5 1.5,2 0,3.5 0.5,4 2,2.5 3.5,4 " fill="#B74551"
        data-svg-origin="2 2" style="transform-origin: 0px 0px; opacity: 0.8654;"
        transform="matrix(0.35107,0.08234,-0.08234,0.35107,605.68364,141.24018)"></polygon>
    <circle id="circ" class="particle" cx="0" cy="0" r="1" fill="#A2CBDC" data-svg-origin="0 0"
        style="transform-origin: 0px 0px; opacity: 0.9188;"
        transform="matrix(-0.47263,-0.25933,0.25933,-0.47263,760.7996,125.8942)"></circle>
    <path id="heart" class="particle"
        d="M2.9,0C2.53,0,2.2,0.18,2,0.47C1.8,0.18,1.47,0,1.1,0C0.49,0,0,0.49,0,1.1 C0,2.6,1.56,4,2,4s2-1.4,2-2.9C4,0.49,3.51,0,2.9,0z"
        fill="#F6FBFE" data-svg-origin="2 2" style="transform-origin: 0px 0px; opacity: 0.6955;"
        transform="matrix(-0.272,0.48745,-0.48745,-0.272,742.3362,162.6013)"></path>
    <polygon id="cross" class="particle"
        points="4,3.5 2.5,2 4,0.5 3.5,0 2,1.5 0.5,0 0,0.5 1.5,2 0,3.5 0.5,4 2,2.5 3.5,4 " fill="#ACE8F8"
        data-svg-origin="2 2" style="transform-origin: 0px 0px; opacity: 0.5888;"
        transform="matrix(0.49856,-0.00636,0.00636,0.49856,743.85816,112.2063)"></polygon>
    <circle id="circ" class="particle" cx="0" cy="0" r="1" fill="#E8F6F8" data-svg-origin="0 0"
        style="transform-origin: 0px 0px; opacity: 0.9934;"
        transform="matrix(-0.04769,-0.10903,0.10903,-0.04769,581.4027,72.9831)"></circle>
    <path id="heart" class="particle"
        d="M2.9,0C2.53,0,2.2,0.18,2,0.47C1.8,0.18,1.47,0,1.1,0C0.49,0,0,0.49,0,1.1 C0,2.6,1.56,4,2,4s2-1.4,2-2.9C4,0.49,3.51,0,2.9,0z"
        fill="#446D39" data-svg-origin="2 2" style="transform-origin: 0px 0px; opacity: 0.785;"
        transform="matrix(0.13566,0.21379,-0.21379,0.13566,689.67016,239.309)"></path>
    <polygon id="cross" class="particle"
        points="4,3.5 2.5,2 4,0.5 3.5,0 2,1.5 0.5,0 0,0.5 1.5,2 0,3.5 0.5,4 2,2.5 3.5,4 " fill="#910B28"
        data-svg-origin="2 2" style="transform-origin: 0px 0px; opacity: 0.9826;"
        transform="matrix(-0.13584,0.08511,-0.08511,-0.13584,597.1859,152.08636)"></polygon>
    <circle id="circ" class="particle" cx="0" cy="0" r="1" fill="#910B28" data-svg-origin="0 0"
        style="transform-origin: 0px 0px; opacity: 0.8095;"
        transform="matrix(-0.5129,0.43666,-0.43666,-0.5129,577.9526,95.4451)"></circle>
    <path id="heart" class="particle"
        d="M2.9,0C2.53,0,2.2,0.18,2,0.47C1.8,0.18,1.47,0,1.1,0C0.49,0,0,0.49,0,1.1 C0,2.6,1.56,4,2,4s2-1.4,2-2.9C4,0.49,3.51,0,2.9,0z"
        fill="#5DBA72" data-svg-origin="2 2" style="transform-origin: 0px 0px; opacity: 0.7803;"
        transform="matrix(-0.43304,-0.22908,0.22908,-0.43304,581.92992,81.63884)"></path>
    <polygon id="cross" class="particle"
        points="4,3.5 2.5,2 4,0.5 3.5,0 2,1.5 0.5,0 0,0.5 1.5,2 0,3.5 0.5,4 2,2.5 3.5,4 " fill="#B74551"
        data-svg-origin="2 2" style="transform-origin: 0px 0px; opacity: 0.7593;"
        transform="matrix(0.24346,0.29215,-0.29215,0.24346,577.67688,159.63718)"></polygon>
    <circle id="circ" class="particle" cx="0" cy="0" r="1" fill="#A2CBDC" data-svg-origin="0 0"
        style="transform-origin: 0px 0px; opacity: 0.8636;"
        transform="matrix(-0.10589,0.45894,-0.45894,-0.10589,611.559,175.6775)"></circle>
    <path id="heart" class="particle"
        d="M2.9,0C2.53,0,2.2,0.18,2,0.47C1.8,0.18,1.47,0,1.1,0C0.49,0,0,0.49,0,1.1 C0,2.6,1.56,4,2,4s2-1.4,2-2.9C4,0.49,3.51,0,2.9,0z"
        fill="#F6FBFE" data-svg-origin="2 2" style="transform-origin: 0px 0px; opacity: 0.7533;"
        transform="matrix(-0.00108,0.6636,-0.6636,-0.00108,591.07386,133.01806)"></path>
    <polygon id="cross" class="particle"
        points="4,3.5 2.5,2 4,0.5 3.5,0 2,1.5 0.5,0 0,0.5 1.5,2 0,3.5 0.5,4 2,2.5 3.5,4 " fill="#ACE8F8"
        data-svg-origin="2 2" style="transform-origin: 0px 0px; opacity: 0.9046;"
        transform="matrix(-0.10859,0.53764,-0.53764,-0.10859,594.73906,99.6312)"></polygon>
    <circle id="circ" class="particle" cx="0" cy="0" r="1" fill="#E8F6F8" data-svg-origin="0 0"
        style="transform-origin: 0px 0px; opacity: 0.9735;"
        transform="matrix(0.32823,0.24968,-0.24968,0.32823,586.9078,56.5109)"></circle>
    <path id="heart" class="particle"
        d="M2.9,0C2.53,0,2.2,0.18,2,0.47C1.8,0.18,1.47,0,1.1,0C0.49,0,0,0.49,0,1.1 C0,2.6,1.56,4,2,4s2-1.4,2-2.9C4,0.49,3.51,0,2.9,0z"
        fill="#446D39" data-svg-origin="2 2" style="transform-origin: 0px 0px; opacity: 0.813;"
        transform="matrix(0.31727,-0.66688,0.66688,0.31727,612.1966,100.06002)"></path>
    <polygon id="cross" class="particle"
        points="4,3.5 2.5,2 4,0.5 3.5,0 2,1.5 0.5,0 0,0.5 1.5,2 0,3.5 0.5,4 2,2.5 3.5,4 " fill="#910B28"
        data-svg-origin="2 2" style="transform-origin: 0px 0px; opacity: 0.7285;"
        transform="matrix(0.63844,-0.7078,0.7078,0.63844,638.45402,-8.49098)"></polygon>
    <circle id="circ" class="particle" cx="0" cy="0" r="1" fill="#910B28" data-svg-origin="0 0"
        style="transform-origin: 0px 0px; opacity: 0.7624;"
        transform="matrix(-0.02115,0.46562,-0.46562,-0.02115,646.4866,56.189)"></circle>
    <path id="heart" class="particle"
        d="M2.9,0C2.53,0,2.2,0.18,2,0.47C1.8,0.18,1.47,0,1.1,0C0.49,0,0,0.49,0,1.1 C0,2.6,1.56,4,2,4s2-1.4,2-2.9C4,0.49,3.51,0,2.9,0z"
        fill="#5DBA72" data-svg-origin="2 2" style="transform-origin: 0px 0px; opacity: 0.8329;"
        transform="matrix(-0.04657,0.29727,-0.29727,-0.04657,680.93698,54.5283)"></path>
    <polygon id="cross" class="particle"
        points="4,3.5 2.5,2 4,0.5 3.5,0 2,1.5 0.5,0 0,0.5 1.5,2 0,3.5 0.5,4 2,2.5 3.5,4 " fill="#B74551"
        data-svg-origin="2 2" style="transform-origin: 0px 0px; opacity: 0.7197;"
        transform="matrix(0.01724,0.33185,-0.33185,0.01724,607.36832,71.43452)"></polygon>
    <circle id="circ" class="particle" cx="0" cy="0" r="1" fill="#A2CBDC" data-svg-origin="0 0"
        style="transform-origin: 0px 0px; opacity: 0.966;"
        transform="matrix(-0.14773,0.16194,-0.16194,-0.14773,615.164,56.1626)"></circle>
    <path id="heart" class="particle"
        d="M2.9,0C2.53,0,2.2,0.18,2,0.47C1.8,0.18,1.47,0,1.1,0C0.49,0,0,0.49,0,1.1 C0,2.6,1.56,4,2,4s2-1.4,2-2.9C4,0.49,3.51,0,2.9,0z"
        fill="#F6FBFE" data-svg-origin="2 2" style="transform-origin: 0px 0px; opacity: 0.9275;"
        transform="matrix(0.40363,0.10151,-0.10151,0.40363,691.86456,150.76502)"></path>
    <polygon id="cross" class="particle"
        points="4,3.5 2.5,2 4,0.5 3.5,0 2,1.5 0.5,0 0,0.5 1.5,2 0,3.5 0.5,4 2,2.5 3.5,4 " fill="#ACE8F8"
        data-svg-origin="2 2" style="transform-origin: 0px 0px; opacity: 0.712;"
        transform="matrix(0.06889,0.23387,-0.23387,0.06889,654.07566,130.49008)"></polygon>
    <circle id="circ" class="particle" cx="0" cy="0" r="1" fill="#E8F6F8" data-svg-origin="0 0"
        style="transform-origin: 0px 0px; opacity: 0.7532;"
        transform="matrix(-0.02619,0.75445,-0.75445,-0.02619,695.6546,120.3143)"></circle>
    <path id="heart" class="particle"
        d="M2.9,0C2.53,0,2.2,0.18,2,0.47C1.8,0.18,1.47,0,1.1,0C0.49,0,0,0.49,0,1.1 C0,2.6,1.56,4,2,4s2-1.4,2-2.9C4,0.49,3.51,0,2.9,0z"
        fill="#446D39" data-svg-origin="2 2" style="transform-origin: 0px 0px; opacity: 0.7207;"
        transform="matrix(-0.89414,0.07755,-0.07755,-0.89414,719.82508,96.10268)"></path>
    <polygon id="cross" class="particle"
        points="4,3.5 2.5,2 4,0.5 3.5,0 2,1.5 0.5,0 0,0.5 1.5,2 0,3.5 0.5,4 2,2.5 3.5,4 " fill="#910B28"
        data-svg-origin="2 2" style="transform-origin: 0px 0px; opacity: 0.8878;"
        transform="matrix(0.07645,-0.41471,0.41471,0.07645,678.27098,110.02072)"></polygon>
    <circle id="circ" class="particle" cx="0" cy="0" r="1" fill="#910B28" data-svg-origin="0 0"
        style="transform-origin: 0px 0px; opacity: 0.9319;"
        transform="matrix(0.59299,0.33321,-0.33321,0.59299,696.1315,96.7047)"></circle>
    <path id="heart" class="particle"
        d="M2.9,0C2.53,0,2.2,0.18,2,0.47C1.8,0.18,1.47,0,1.1,0C0.49,0,0,0.49,0,1.1 C0,2.6,1.56,4,2,4s2-1.4,2-2.9C4,0.49,3.51,0,2.9,0z"
        fill="#5DBA72" data-svg-origin="2 2" style="transform-origin: 0px 0px; opacity: 0.8099;"
        transform="matrix(0.98366,-0.82635,0.82635,0.98366,655.19688,103.03648)"></path>
    <polygon id="cross" class="particle"
        points="4,3.5 2.5,2 4,0.5 3.5,0 2,1.5 0.5,0 0,0.5 1.5,2 0,3.5 0.5,4 2,2.5 3.5,4 " fill="#B74551"
        data-svg-origin="2 2" style="transform-origin: 0px 0px; opacity: 0.8725;"
        transform="matrix(-0.26149,0.98839,-0.98839,-0.26149,635.92156,96.5819)"></polygon>
    <circle id="circ" class="particle" cx="0" cy="0" r="1" fill="#A2CBDC" data-svg-origin="0 0"
        style="transform-origin: 0px 0px; opacity: 0.9671;"
        transform="matrix(-0.17295,0.20262,-0.20262,-0.17295,621.8115,48.9456)"></circle>
    <path id="heart" class="particle"
        d="M2.9,0C2.53,0,2.2,0.18,2,0.47C1.8,0.18,1.47,0,1.1,0C0.49,0,0,0.49,0,1.1 C0,2.6,1.56,4,2,4s2-1.4,2-2.9C4,0.49,3.51,0,2.9,0z"
        fill="#F6FBFE" data-svg-origin="2 2" style="transform-origin: 0px 0px; opacity: 0.9238;"
        transform="matrix(0.7191,-0.53384,0.53384,0.7191,662.80292,14.29528)"></path>
    <polygon id="cross" class="particle"
        points="4,3.5 2.5,2 4,0.5 3.5,0 2,1.5 0.5,0 0,0.5 1.5,2 0,3.5 0.5,4 2,2.5 3.5,4 " fill="#ACE8F8"
        data-svg-origin="2 2" style="transform-origin: 0px 0px; opacity: 0.9432;"
        transform="matrix(0.52378,1.10306,-1.10306,0.52378,654.84536,1.81192)"></polygon>
    <circle id="circ" class="particle" cx="0" cy="0" r="1" fill="#E8F6F8" data-svg-origin="0 0"
        style="transform-origin: 0px 0px; opacity: 0.7673;"
        transform="matrix(0.08794,-0.44398,0.44398,0.08794,692.1255,64.9797)"></circle>
    <path id="heart" class="particle"
        d="M2.9,0C2.53,0,2.2,0.18,2,0.47C1.8,0.18,1.47,0,1.1,0C0.49,0,0,0.49,0,1.1 C0,2.6,1.56,4,2,4s2-1.4,2-2.9C4,0.49,3.51,0,2.9,0z"
        fill="#446D39" data-svg-origin="2 2" style="transform-origin: 0px 0px; opacity: 0.8171;"
        transform="matrix(0.36358,0.08852,-0.08852,0.36358,639.67948,93.5513)"></path>
    <polygon id="cross" class="particle"
        points="4,3.5 2.5,2 4,0.5 3.5,0 2,1.5 0.5,0 0,0.5 1.5,2 0,3.5 0.5,4 2,2.5 3.5,4 " fill="#910B28"
        data-svg-origin="2 2" style="transform-origin: 0px 0px; opacity: 0.9923;"
        transform="matrix(-0.35733,1.28992,-1.28992,-0.35733,695.571,52.01532)"></polygon>
    <circle id="circ" class="particle" cx="0" cy="0" r="1" fill="#910B28" data-svg-origin="0 0"
        style="transform-origin: 0px 0px; opacity: 0.7875;"
        transform="matrix(-0.47197,1.468,-1.468,-0.47197,683.7299,93.6822)"></circle>
    <path id="heart" class="particle"
        d="M2.9,0C2.53,0,2.2,0.18,2,0.47C1.8,0.18,1.47,0,1.1,0C0.49,0,0,0.49,0,1.1 C0,2.6,1.56,4,2,4s2-1.4,2-2.9C4,0.49,3.51,0,2.9,0z"
        fill="#5DBA72" data-svg-origin="2 2" style="transform-origin: 0px 0px; opacity: 0.8888;"
        transform="matrix(0.65321,0.90301,-0.90301,0.65321,622.3782,37.67416)"></path>
    <polygon id="cross" class="particle"
        points="4,3.5 2.5,2 4,0.5 3.5,0 2,1.5 0.5,0 0,0.5 1.5,2 0,3.5 0.5,4 2,2.5 3.5,4 " fill="#B74551"
        data-svg-origin="2 2" style="transform-origin: 0px 0px; opacity: 0.8077;"
        transform="matrix(-0.78149,1.06604,-1.06604,-0.78149,703.97676,29.515)"></polygon>
    <circle id="circ" class="particle" cx="0" cy="0" r="1" fill="#A2CBDC" data-svg-origin="0 0"
        style="transform-origin: 0px 0px; opacity: 0.8655;"
        transform="matrix(-1.67284,0.26947,-0.26947,-1.67284,698.7093,48.0228)"></circle>
    <path id="heart" class="particle"
        d="M2.9,0C2.53,0,2.2,0.18,2,0.47C1.8,0.18,1.47,0,1.1,0C0.49,0,0,0.49,0,1.1 C0,2.6,1.56,4,2,4s2-1.4,2-2.9C4,0.49,3.51,0,2.9,0z"
        fill="#F6FBFE" data-svg-origin="2 2" style="transform-origin: 0px 0px; opacity: 0.8948;"
        transform="matrix(0.91918,0.87593,-0.87593,0.91918,618.2885,31.13048)"></path>
    <polygon id="cross" class="particle"
        points="4,3.5 2.5,2 4,0.5 3.5,0 2,1.5 0.5,0 0,0.5 1.5,2 0,3.5 0.5,4 2,2.5 3.5,4 " fill="#ACE8F8"
        data-svg-origin="2 2" style="transform-origin: 0px 0px; opacity: 0.7961;"
        transform="matrix(-0.60249,-1.68683,1.68683,-0.60249,634.86942,64.80684)"></polygon>
    <circle id="circ" class="particle" cx="0" cy="0" r="1" fill="#E8F6F8" data-svg-origin="0 0"
        style="transform-origin: 0px 0px; opacity: 0.9208;"
        transform="matrix(-0.03199,0.71108,-0.71108,-0.03199,626.7546,4.6851)"></circle>
    <path id="heart" class="particle"
        d="M2.9,0C2.53,0,2.2,0.18,2,0.47C1.8,0.18,1.47,0,1.1,0C0.49,0,0,0.49,0,1.1 C0,2.6,1.56,4,2,4s2-1.4,2-2.9C4,0.49,3.51,0,2.9,0z"
        fill="#446D39" data-svg-origin="2 2" style="transform-origin: 0px 0px; opacity: 0.865;"
        transform="matrix(-0.30287,-0.78318,0.78318,-0.30287,625.59968,58.3537)"></path>
    <polygon id="cross" class="particle"
        points="4,3.5 2.5,2 4,0.5 3.5,0 2,1.5 0.5,0 0,0.5 1.5,2 0,3.5 0.5,4 2,2.5 3.5,4 " fill="#910B28"
        data-svg-origin="2 2" style="transform-origin: 0px 0px; opacity: 0.9013;"
        transform="matrix(-0.50082,0.2519,-0.2519,-0.50082,643.39224,5.97584)"></polygon>
    <circle id="circ" class="particle" cx="0" cy="0" r="1" fill="#910B28" data-svg-origin="0 0"
        style="transform-origin: 0px 0px; opacity: 0.8884;"
        transform="matrix(0.46644,-0.83495,0.83495,0.46644,669.2867,17.0464)"></circle>
    <path id="heart" class="particle"
        d="M2.9,0C2.53,0,2.2,0.18,2,0.47C1.8,0.18,1.47,0,1.1,0C0.49,0,0,0.49,0,1.1 C0,2.6,1.56,4,2,4s2-1.4,2-2.9C4,0.49,3.51,0,2.9,0z"
        fill="#5DBA72" data-svg-origin="2 2" style="transform-origin: 0px 0px; opacity: 0.9018;"
        transform="matrix(-0.13115,-0.34758,0.34758,-0.13115,676.68274,14.42926)"></path>
    <polygon id="cross" class="particle"
        points="4,3.5 2.5,2 4,0.5 3.5,0 2,1.5 0.5,0 0,0.5 1.5,2 0,3.5 0.5,4 2,2.5 3.5,4 " fill="#B74551"
        data-svg-origin="2 2" style="transform-origin: 0px 0px; opacity: 0.899;"
        transform="matrix(-0.48143,0.77658,-0.77658,-0.48143,635.30722,27.9004)"></polygon>
    <circle id="circ" class="particle" cx="0" cy="0" r="1" fill="#A2CBDC" data-svg-origin="0 0"
        style="transform-origin: 0px 0px; opacity: 0.8629;"
        transform="matrix(-0.66293,1.41125,-1.41125,-0.66293,642.1475,44.5686)"></circle>
    <path id="heart" class="particle"
        d="M2.9,0C2.53,0,2.2,0.18,2,0.47C1.8,0.18,1.47,0,1.1,0C0.49,0,0,0.49,0,1.1 C0,2.6,1.56,4,2,4s2-1.4,2-2.9C4,0.49,3.51,0,2.9,0z"
        fill="#F6FBFE" data-svg-origin="2 2" style="transform-origin: 0px 0px; opacity: 0.9322;"
        transform="matrix(-0.36914,0.42695,-0.42695,-0.36914,683.35768,50.49798)"></path>
    <polygon id="cross" class="particle"
        points="4,3.5 2.5,2 4,0.5 3.5,0 2,1.5 0.5,0 0,0.5 1.5,2 0,3.5 0.5,4 2,2.5 3.5,4 " fill="#ACE8F8"
        data-svg-origin="2 2" style="transform-origin: 0px 0px; opacity: 0.9427;"
        transform="matrix(0.7708,-0.44893,0.44893,0.7708,646.02424,6.44046)"></polygon>
    <circle id="circ" class="particle" cx="0" cy="0" r="1" fill="#E8F6F8" data-svg-origin="0 0"
        style="transform-origin: 0px 0px; opacity: 0.9547;"
        transform="matrix(-0.57843,0.24633,-0.24633,-0.57843,641.268,40.2598)"></circle>
    <path id="heart" class="particle"
        d="M2.9,0C2.53,0,2.2,0.18,2,0.47C1.8,0.18,1.47,0,1.1,0C0.49,0,0,0.49,0,1.1 C0,2.6,1.56,4,2,4s2-1.4,2-2.9C4,0.49,3.51,0,2.9,0z"
        fill="#446D39" data-svg-origin="2 2" style="transform-origin: 0px 0px; opacity: 0.9589;"
        transform="matrix(-0.44026,1.35602,-1.35602,-0.44026,647.80806,18.92708)"></path>
    <polygon id="cross" class="particle"
        points="4,3.5 2.5,2 4,0.5 3.5,0 2,1.5 0.5,0 0,0.5 1.5,2 0,3.5 0.5,4 2,2.5 3.5,4 " fill="#910B28"
        data-svg-origin="2 2" style="transform-origin: 0px 0px; opacity: 0.9536;"
        transform="matrix(1.16989,-1.31182,1.31182,1.16989,635.19668,20.38026)"></polygon>
    <circle id="circ" class="particle" cx="0" cy="0" r="1" fill="#910B28" data-svg-origin="0 0"
        style="transform-origin: 0px 0px; opacity: 0.9577;"
        transform="matrix(0.03345,1.96382,-1.96382,0.03345,656.5499,38.2646)"></circle>
    <path id="heart" class="particle"
        d="M2.9,0C2.53,0,2.2,0.18,2,0.47C1.8,0.18,1.47,0,1.1,0C0.49,0,0,0.49,0,1.1 C0,2.6,1.56,4,2,4s2-1.4,2-2.9C4,0.49,3.51,0,2.9,0z"
        fill="#5DBA72" data-svg-origin="2 2" style="transform-origin: 0px 0px; opacity: 0.9027;"
        transform="matrix(1.93807,0.07451,-0.07451,1.93807,645.78008,5.74344)"></path>
    <polygon id="cross" class="particle"
        points="4,3.5 2.5,2 4,0.5 3.5,0 2,1.5 0.5,0 0,0.5 1.5,2 0,3.5 0.5,4 2,2.5 3.5,4 " fill="#B74551"
        data-svg-origin="2 2" style="transform-origin: 0px 0px; opacity: 0.9444;"
        transform="matrix(1.22903,-0.53968,0.53968,1.22903,644.31568,18.9176)"></polygon>
    <circle id="circ" class="particle" cx="0" cy="0" r="1" fill="#A2CBDC" data-svg-origin="0 0"
        style="transform-origin: 0px 0px; opacity: 0.9447;"
        transform="matrix(0.03687,-0.53243,0.53243,0.03687,643.4393,26.5184)"></circle>
    <path id="heart" class="particle"
        d="M2.9,0C2.53,0,2.2,0.18,2,0.47C1.8,0.18,1.47,0,1.1,0C0.49,0,0,0.49,0,1.1 C0,2.6,1.56,4,2,4s2-1.4,2-2.9C4,0.49,3.51,0,2.9,0z"
        fill="#F6FBFE" data-svg-origin="2 2" style="transform-origin: 0px 0px; opacity: 0.9805;"
        transform="matrix(-0.93726,-0.47554,0.47554,-0.93726,649.42184,25.5455)"></path>
    <polygon id="cross" class="particle"
        points="4,3.5 2.5,2 4,0.5 3.5,0 2,1.5 0.5,0 0,0.5 1.5,2 0,3.5 0.5,4 2,2.5 3.5,4 " fill="#ACE8F8"
        data-svg-origin="2 2" style="transform-origin: 0px 0px; opacity: 0.9762;"
        transform="matrix(0.30542,-1.77278,1.77278,0.30542,643.2084,33.09542)"></polygon>
    <circle id="circ" class="particle" cx="0" cy="0" r="1" fill="#E8F6F8" data-svg-origin="0 0"
        style="transform-origin: 0px 0px; opacity: 0.9842;"
        transform="matrix(-0.7078,0.20031,-0.20031,-0.7078,663.1409,27.3218)"></circle>
    <path id="heart" class="particle"
        d="M2.9,0C2.53,0,2.2,0.18,2,0.47C1.8,0.18,1.47,0,1.1,0C0.49,0,0,0.49,0,1.1 C0,2.6,1.56,4,2,4s2-1.4,2-2.9C4,0.49,3.51,0,2.9,0z"
        fill="#446D39" data-svg-origin="2 2" style="transform-origin: 0px 0px; opacity: 0.9794;"
        transform="matrix(1.29769,-1.68236,1.68236,1.29769,649.2933,28.12874)"></path>
    <polygon id="cross" class="particle"
        points="4,3.5 2.5,2 4,0.5 3.5,0 2,1.5 0.5,0 0,0.5 1.5,2 0,3.5 0.5,4 2,2.5 3.5,4 " fill="#910B28"
        data-svg-origin="2 2" style="transform-origin: 0px 0px; opacity: 0.9888;"
        transform="matrix(-0.14719,-2.48675,2.48675,-0.14719,662.31468,30.50508)"></polygon>
    <circle id="circ" class="particle" cx="0" cy="0" r="1" fill="#910B28" data-svg-origin="0 0"
        style="transform-origin: 0px 0px; opacity: 0.9864;"
        transform="matrix(-2.54093,0.4519,-0.4519,-2.54093,655.3435,12.6799)"></circle>
    <path id="heart" class="particle"
        d="M2.9,0C2.53,0,2.2,0.18,2,0.47C1.8,0.18,1.47,0,1.1,0C0.49,0,0,0.49,0,1.1 C0,2.6,1.56,4,2,4s2-1.4,2-2.9C4,0.49,3.51,0,2.9,0z"
        fill="#5DBA72" data-svg-origin="2 2" style="transform-origin: 0px 0px; opacity: 0.9869;"
        transform="matrix(1.06138,1.72644,-1.72644,1.06138,664.52182,11.97376)"></path>
    <polygon id="cross" class="particle"
        points="4,3.5 2.5,2 4,0.5 3.5,0 2,1.5 0.5,0 0,0.5 1.5,2 0,3.5 0.5,4 2,2.5 3.5,4 " fill="#B74551"
        data-svg-origin="2 2" style="transform-origin: 0px 0px; opacity: 1;"
        transform="matrix(-0.90308,2.63187,-2.63187,-0.90308,666.862,21.42592)"></polygon>
    <circle id="circ" class="particle" cx="0" cy="0" r="1" fill="#A2CBDC" data-svg-origin="0 0"
        style="transform-origin: 0px 0px; opacity: 0.3069;"
        transform="matrix(0.05917,-0.95317,0.95317,0.05917,657.9962,20.0076)"></circle>
    <path id="heart" class="particle"
        d="M2.9,0C2.53,0,2.2,0.18,2,0.47C1.8,0.18,1.47,0,1.1,0C0.49,0,0,0.49,0,1.1 C0,2.6,1.56,4,2,4s2-1.4,2-2.9C4,0.49,3.51,0,2.9,0z"
        fill="#F6FBFE" data-svg-origin="2 2" style="transform-origin: 0px 0px; opacity: 0.4393;"
        transform="matrix(0,0,0,0,514.4262,426.265)"></path>
    <polygon id="cross" class="particle"
        points="4,3.5 2.5,2 4,0.5 3.5,0 2,1.5 0.5,0 0,0.5 1.5,2 0,3.5 0.5,4 2,2.5 3.5,4 " fill="#ACE8F8"
        data-svg-origin="2 2" style="transform-origin: 0px 0px; opacity: 0.6883;"
        transform="matrix(0,0,0,0,546.7973,438.2277)"></polygon>
    <circle id="circ" class="particle" cx="0" cy="0" r="1" fill="#E8F6F8" data-svg-origin="0 0"
        style="transform-origin: 0px 0px; opacity: 0.2766;" transform="matrix(0,0,0,0,570.2775,381.6737)"></circle>
    <path id="heart" class="particle"
        d="M2.9,0C2.53,0,2.2,0.18,2,0.47C1.8,0.18,1.47,0,1.1,0C0.49,0,0,0.49,0,1.1 C0,2.6,1.56,4,2,4s2-1.4,2-2.9C4,0.49,3.51,0,2.9,0z"
        fill="#446D39" data-svg-origin="2 2" style="transform-origin: 0px 0px; opacity: 0.7897;"
        transform="matrix(0,0,0,0,609.4639,610.3143)"></path>
    <polygon id="cross" class="particle"
        points="4,3.5 2.5,2 4,0.5 3.5,0 2,1.5 0.5,0 0,0.5 1.5,2 0,3.5 0.5,4 2,2.5 3.5,4 " fill="#910B28"
        data-svg-origin="2 2" style="transform-origin: 0px 0px; opacity: 0.6314;"
        transform="matrix(0,0,0,0,794.2525,406.6085)"></polygon>
    <circle id="circ" class="particle" cx="0" cy="0" r="1" fill="#910B28" data-svg-origin="0 0"
        style="transform-origin: 0px 0px; opacity: 0.7963;" transform="matrix(0,0,0,0,588.8543,293.703)"></circle>
    <path id="heart" class="particle"
        d="M2.9,0C2.53,0,2.2,0.18,2,0.47C1.8,0.18,1.47,0,1.1,0C0.49,0,0,0.49,0,1.1 C0,2.6,1.56,4,2,4s2-1.4,2-2.9C4,0.49,3.51,0,2.9,0z"
        fill="#5DBA72" data-svg-origin="2 2" style="transform-origin: 0px 0px; opacity: 0.8172;"
        transform="matrix(0,0,0,0,716.6928,555.6194)"></path>
    <polygon id="cross" class="particle"
        points="4,3.5 2.5,2 4,0.5 3.5,0 2,1.5 0.5,0 0,0.5 1.5,2 0,3.5 0.5,4 2,2.5 3.5,4 " fill="#B74551"
        data-svg-origin="2 2" style="transform-origin: 0px 0px; opacity: 0.5189;"
        transform="matrix(0,0,0,0,575.0651,561.7722)"></polygon>
    <circle id="circ" class="particle" cx="0" cy="0" r="1" fill="#A2CBDC" data-svg-origin="0 0"
        style="transform-origin: 0px 0px; opacity: 0.5799;" transform="matrix(0,0,0,0,655.1745,235.3478)"></circle>
    <path id="heart" class="particle"
        d="M2.9,0C2.53,0,2.2,0.18,2,0.47C1.8,0.18,1.47,0,1.1,0C0.49,0,0,0.49,0,1.1 C0,2.6,1.56,4,2,4s2-1.4,2-2.9C4,0.49,3.51,0,2.9,0z"
        fill="#F6FBFE" data-svg-origin="2 2" style="transform-origin: 0px 0px; opacity: 0.4754;"
        transform="matrix(0,0,0,0,597.5373,353.6166)"></path>
    <polygon id="cross" class="particle"
        points="4,3.5 2.5,2 4,0.5 3.5,0 2,1.5 0.5,0 0,0.5 1.5,2 0,3.5 0.5,4 2,2.5 3.5,4 " fill="#ACE8F8"
        data-svg-origin="2 2" style="transform-origin: 0px 0px; opacity: 0.84;"
        transform="matrix(0,0,0,0,550.916,258.6966)"></polygon>
    <circle id="circ" class="particle" cx="0" cy="0" r="1" fill="#E8F6F8" data-svg-origin="0 0"
        style="transform-origin: 0px 0px; opacity: 0.6606;" transform="matrix(0,0,0,0,560.5933,419.9359)"></circle>
    <path id="heart" class="particle"
        d="M2.9,0C2.53,0,2.2,0.18,2,0.47C1.8,0.18,1.47,0,1.1,0C0.49,0,0,0.49,0,1.1 C0,2.6,1.56,4,2,4s2-1.4,2-2.9C4,0.49,3.51,0,2.9,0z"
        fill="#446D39" data-svg-origin="2 2" style="transform-origin: 0px 0px; opacity: 0.351;"
        transform="matrix(0,0,0,0,628.3599,390.5566)"></path>
    <polygon id="cross" class="particle"
        points="4,3.5 2.5,2 4,0.5 3.5,0 2,1.5 0.5,0 0,0.5 1.5,2 0,3.5 0.5,4 2,2.5 3.5,4 " fill="#910B28"
        data-svg-origin="2 2" style="transform-origin: 0px 0px; opacity: 0.864;"
        transform="matrix(0,0,0,0,763.1701,466.3703)"></polygon>
    <circle id="circ" class="particle" cx="0" cy="0" r="1" fill="#910B28" data-svg-origin="0 0"
        style="transform-origin: 0px 0px; opacity: 0.5669;" transform="matrix(0,0,0,0,631.3836,552.6449)"></circle>
    <path id="heart" class="particle"
        d="M2.9,0C2.53,0,2.2,0.18,2,0.47C1.8,0.18,1.47,0,1.1,0C0.49,0,0,0.49,0,1.1 C0,2.6,1.56,4,2,4s2-1.4,2-2.9C4,0.49,3.51,0,2.9,0z"
        fill="#5DBA72" data-svg-origin="2 2" style="transform-origin: 0px 0px; opacity: 0.7807;"
        transform="matrix(0,0,0,0,519.9674,245.1659)"></path>
    <polygon id="cross" class="particle"
        points="4,3.5 2.5,2 4,0.5 3.5,0 2,1.5 0.5,0 0,0.5 1.5,2 0,3.5 0.5,4 2,2.5 3.5,4 " fill="#B74551"
        data-svg-origin="2 2" style="transform-origin: 0px 0px; opacity: 0.779;"
        transform="matrix(0,0,0,0,562.7262,380.196)"></polygon>
    <circle id="circ" class="particle" cx="0" cy="0" r="1" fill="#A2CBDC" data-svg-origin="0 0"
        style="transform-origin: 0px 0px; opacity: 0.2026;" transform="matrix(0,0,0,0,538.2794,525.3094)"></circle>
    <path id="heart" class="particle"
        d="M2.9,0C2.53,0,2.2,0.18,2,0.47C1.8,0.18,1.47,0,1.1,0C0.49,0,0,0.49,0,1.1 C0,2.6,1.56,4,2,4s2-1.4,2-2.9C4,0.49,3.51,0,2.9,0z"
        fill="#F6FBFE" data-svg-origin="2 2" style="transform-origin: 0px 0px; opacity: 0.745;"
        transform="matrix(0,0,0,0,491.758,354.2507)"></path>
    <polygon id="cross" class="particle"
        points="4,3.5 2.5,2 4,0.5 3.5,0 2,1.5 0.5,0 0,0.5 1.5,2 0,3.5 0.5,4 2,2.5 3.5,4 " fill="#ACE8F8"
        data-svg-origin="2 2" style="transform-origin: 0px 0px; opacity: 0.765;"
        transform="matrix(0,0,0,0,615.7776,189.3354)"></polygon>
    <circle id="circ" class="particle" cx="0" cy="0" r="1" fill="#E8F6F8" data-svg-origin="0 0"
        style="transform-origin: 0px 0px; opacity: 0.9578;" transform="matrix(0,0,0,0,517.0041,601.3822)"></circle>
    <path id="heart" class="particle"
        d="M2.9,0C2.53,0,2.2,0.18,2,0.47C1.8,0.18,1.47,0,1.1,0C0.49,0,0,0.49,0,1.1 C0,2.6,1.56,4,2,4s2-1.4,2-2.9C4,0.49,3.51,0,2.9,0z"
        fill="#446D39" data-svg-origin="2 2" style="transform-origin: 0px 0px; opacity: 0.2858;"
        transform="matrix(0,0,0,0,498.6332,321.0537)"></path>
    <polygon id="cross" class="particle"
        points="4,3.5 2.5,2 4,0.5 3.5,0 2,1.5 0.5,0 0,0.5 1.5,2 0,3.5 0.5,4 2,2.5 3.5,4 " fill="#910B28"
        data-svg-origin="2 2" style="transform-origin: 0px 0px; opacity: 0.8427;"
        transform="matrix(0,0,0,0,747.7425,357.4895)"></polygon>
    <circle id="circ" class="particle" cx="0" cy="0" r="1" fill="#910B28" data-svg-origin="0 0"
        style="transform-origin: 0px 0px; opacity: 0.631;" transform="matrix(0,0,0,0,571.3341,398.4769)"></circle>
    <path id="heart" class="particle"
        d="M2.9,0C2.53,0,2.2,0.18,2,0.47C1.8,0.18,1.47,0,1.1,0C0.49,0,0,0.49,0,1.1 C0,2.6,1.56,4,2,4s2-1.4,2-2.9C4,0.49,3.51,0,2.9,0z"
        fill="#5DBA72" data-svg-origin="2 2" style="transform-origin: 0px 0px; opacity: 0.6713;"
        transform="matrix(0,0,0,0,515.4135,404.7482)"></path>
    <polygon id="cross" class="particle"
        points="4,3.5 2.5,2 4,0.5 3.5,0 2,1.5 0.5,0 0,0.5 1.5,2 0,3.5 0.5,4 2,2.5 3.5,4 " fill="#B74551"
        data-svg-origin="2 2" style="transform-origin: 0px 0px; opacity: 0.6822;"
        transform="matrix(0,0,0,0,506.2072,448.5093)"></polygon>
    <circle id="circ" class="particle" cx="0" cy="0" r="1" fill="#A2CBDC" data-svg-origin="0 0"
        style="transform-origin: 0px 0px; opacity: 0.879;" transform="matrix(0,0,0,0,517.9616,456.8033)"></circle>
    <path id="heart" class="particle"
        d="M2.9,0C2.53,0,2.2,0.18,2,0.47C1.8,0.18,1.47,0,1.1,0C0.49,0,0,0.49,0,1.1 C0,2.6,1.56,4,2,4s2-1.4,2-2.9C4,0.49,3.51,0,2.9,0z"
        fill="#F6FBFE" data-svg-origin="2 2" style="transform-origin: 0px 0px; opacity: 0.5729;"
        transform="matrix(0,0,0,0,759.0568,397.3262)"></path>
    <polygon id="cross" class="particle"
        points="4,3.5 2.5,2 4,0.5 3.5,0 2,1.5 0.5,0 0,0.5 1.5,2 0,3.5 0.5,4 2,2.5 3.5,4 " fill="#ACE8F8"
        data-svg-origin="2 2" style="transform-origin: 0px 0px; opacity: 0.6979;"
        transform="matrix(0,0,0,0,564.3919,265.3541)"></polygon>
    <circle id="circ" class="particle" cx="0" cy="0" r="1" fill="#E8F6F8" data-svg-origin="0 0"
        style="transform-origin: 0px 0px; opacity: 0.6297;" transform="matrix(0,0,0,0,625.64,354.2785)"></circle>
    <path id="heart" class="particle"
        d="M2.9,0C2.53,0,2.2,0.18,2,0.47C1.8,0.18,1.47,0,1.1,0C0.49,0,0,0.49,0,1.1 C0,2.6,1.56,4,2,4s2-1.4,2-2.9C4,0.49,3.51,0,2.9,0z"
        fill="#446D39" data-svg-origin="2 2" style="transform-origin: 0px 0px; opacity: 0.8893;"
        transform="matrix(0,0,0,0,810.9955,475.2378)"></path>
    <polygon id="cross" class="particle"
        points="4,3.5 2.5,2 4,0.5 3.5,0 2,1.5 0.5,0 0,0.5 1.5,2 0,3.5 0.5,4 2,2.5 3.5,4 " fill="#910B28"
        data-svg-origin="2 2" style="transform-origin: 0px 0px; opacity: 0.612;"
        transform="matrix(0,0,0,0,678.5697,520.412)"></polygon>
    <circle id="circ" class="particle" cx="0" cy="0" r="1" fill="#910B28" data-svg-origin="0 0"
        style="transform-origin: 0px 0px; opacity: 0.5414;"
        transform="matrix(0.00013,-0.00016,0.00016,0.00013,754.1912,419.3996)"></circle>
    <path id="heart" class="particle"
        d="M2.9,0C2.53,0,2.2,0.18,2,0.47C1.8,0.18,1.47,0,1.1,0C0.49,0,0,0.49,0,1.1 C0,2.6,1.56,4,2,4s2-1.4,2-2.9C4,0.49,3.51,0,2.9,0z"
        fill="#5DBA72" data-svg-origin="2 2" style="transform-origin: 0px 0px; opacity: 0.3111;"
        transform="matrix(0.00014,-0.00099,0.00099,0.00014,696.45324,549.8467)"></path>
    <polygon id="cross" class="particle"
        points="4,3.5 2.5,2 4,0.5 3.5,0 2,1.5 0.5,0 0,0.5 1.5,2 0,3.5 0.5,4 2,2.5 3.5,4 " fill="#B74551"
        data-svg-origin="2 2" style="transform-origin: 0px 0px; opacity: 0.3088;"
        transform="matrix(0.00046,-0.00038,0.00038,0.00046,556.87032,528.27494)"></polygon>
    <circle id="circ" class="particle" cx="0" cy="0" r="1" fill="#A2CBDC" data-svg-origin="0 0"
        style="transform-origin: 0px 0px; opacity: 0.6808;"
        transform="matrix(-0.00103,0.00039,-0.00039,-0.00103,618.7734,579.6469)"></circle>
    <path id="heart" class="particle"
        d="M2.9,0C2.53,0,2.2,0.18,2,0.47C1.8,0.18,1.47,0,1.1,0C0.49,0,0,0.49,0,1.1 C0,2.6,1.56,4,2,4s2-1.4,2-2.9C4,0.49,3.51,0,2.9,0z"
        fill="#F6FBFE" data-svg-origin="2 2" style="transform-origin: 0px 0px; opacity: 0.5772;"
        transform="matrix(0.00098,-0.00127,0.00127,0.00098,808.8606,280.27078)"></path>
    <polygon id="cross" class="particle"
        points="4,3.5 2.5,2 4,0.5 3.5,0 2,1.5 0.5,0 0,0.5 1.5,2 0,3.5 0.5,4 2,2.5 3.5,4 " fill="#ACE8F8"
        data-svg-origin="2 2" style="transform-origin: 0px 0px; opacity: 0.9662;"
        transform="matrix(0.00541,-0.00099,0.00099,0.00541,551.2201,328.19526)"></polygon>
    <circle id="circ" class="particle" cx="0" cy="0" r="1" fill="#E8F6F8" data-svg-origin="0 0"
        style="transform-origin: 0px 0px; opacity: 0.5421;"
        transform="matrix(0.00252,-0.00443,0.00443,0.00252,555.165,360.2033)"></circle>
    <path id="heart" class="particle"
        d="M2.9,0C2.53,0,2.2,0.18,2,0.47C1.8,0.18,1.47,0,1.1,0C0.49,0,0,0.49,0,1.1 C0,2.6,1.56,4,2,4s2-1.4,2-2.9C4,0.49,3.51,0,2.9,0z"
        fill="#446D39" data-svg-origin="2 2" style="transform-origin: 0px 0px; opacity: 0.4772;"
        transform="matrix(-0.00218,0.01099,-0.01099,-0.00218,536.89884,272.27808)"></path>
    <polygon id="cross" class="particle"
        points="4,3.5 2.5,2 4,0.5 3.5,0 2,1.5 0.5,0 0,0.5 1.5,2 0,3.5 0.5,4 2,2.5 3.5,4 " fill="#910B28"
        data-svg-origin="2 2" style="transform-origin: 0px 0px; opacity: 0.9632;"
        transform="matrix(0.00511,0.00589,-0.00589,0.00511,533.84956,387.4772)"></polygon>
    <circle id="circ" class="particle" cx="0" cy="0" r="1" fill="#910B28" data-svg-origin="0 0"
        style="transform-origin: 0px 0px; opacity: 0.4064;"
        transform="matrix(-0.00061,-0.00808,0.00808,-0.00061,537.6277,390.3852)"></circle>
    <path id="heart" class="particle"
        d="M2.9,0C2.53,0,2.2,0.18,2,0.47C1.8,0.18,1.47,0,1.1,0C0.49,0,0,0.49,0,1.1 C0,2.6,1.56,4,2,4s2-1.4,2-2.9C4,0.49,3.51,0,2.9,0z"
        fill="#5DBA72" data-svg-origin="2 2" style="transform-origin: 0px 0px; opacity: 0.8921;"
        transform="matrix(-0.01613,-0.00598,0.00598,-0.01613,509.2148,298.06182)"></path>
    <polygon id="cross" class="particle"
        points="4,3.5 2.5,2 4,0.5 3.5,0 2,1.5 0.5,0 0,0.5 1.5,2 0,3.5 0.5,4 2,2.5 3.5,4 " fill="#B74551"
        data-svg-origin="2 2" style="transform-origin: 0px 0px; opacity: 0.3292;"
        transform="matrix(-0.0009,-0.00815,0.00815,-0.0009,733.2805,225.2686)"></polygon>
    <circle id="circ" class="particle" cx="0" cy="0" r="1" fill="#A2CBDC" data-svg-origin="0 0"
        style="transform-origin: 0px 0px; opacity: 0.6498;"
        transform="matrix(-0.017,-0.01199,0.01199,-0.017,652.6133,448.7748)"></circle>
    <path id="heart" class="particle"
        d="M2.9,0C2.53,0,2.2,0.18,2,0.47C1.8,0.18,1.47,0,1.1,0C0.49,0,0,0.49,0,1.1 C0,2.6,1.56,4,2,4s2-1.4,2-2.9C4,0.49,3.51,0,2.9,0z"
        fill="#F6FBFE" data-svg-origin="2 2" style="transform-origin: 0px 0px; opacity: 0.9192;"
        transform="matrix(-0.00957,-0.03595,0.03595,-0.00957,753.04904,334.18204)"></path>
    <polygon id="cross" class="particle"
        points="4,3.5 2.5,2 4,0.5 3.5,0 2,1.5 0.5,0 0,0.5 1.5,2 0,3.5 0.5,4 2,2.5 3.5,4 " fill="#ACE8F8"
        data-svg-origin="2 2" style="transform-origin: 0px 0px; opacity: 0.8608;"
        transform="matrix(0.00762,0.00647,-0.00647,0.00762,510.9435,241.48472)"></polygon>
    <circle id="circ" class="particle" cx="0" cy="0" r="1" fill="#E8F6F8" data-svg-origin="0 0"
        style="transform-origin: 0px 0px; opacity: 0.5605;"
        transform="matrix(0.01065,-0.04444,0.04444,0.01065,575.5591,276.8782)"></circle>
    <path id="heart" class="particle"
        d="M2.9,0C2.53,0,2.2,0.18,2,0.47C1.8,0.18,1.47,0,1.1,0C0.49,0,0,0.49,0,1.1 C0,2.6,1.56,4,2,4s2-1.4,2-2.9C4,0.49,3.51,0,2.9,0z"
        fill="#446D39" data-svg-origin="2 2" style="transform-origin: 0px 0px; opacity: 0.748;"
        transform="matrix(-0.0057,0.01202,-0.01202,-0.0057,716.66064,470.70756)"></path>
    <polygon id="cross" class="particle"
        points="4,3.5 2.5,2 4,0.5 3.5,0 2,1.5 0.5,0 0,0.5 1.5,2 0,3.5 0.5,4 2,2.5 3.5,4 " fill="#910B28"
        data-svg-origin="2 2" style="transform-origin: 0px 0px; opacity: 0.5698;"
        transform="matrix(0.02022,0.05967,-0.05967,0.02022,736.2605,248.28732)"></polygon>
    <circle id="circ" class="particle" cx="0" cy="0" r="1" fill="#910B28" data-svg-origin="0 0"
        style="transform-origin: 0px 0px; opacity: 0.9276;"
        transform="matrix(-0.00548,0.06025,-0.06025,-0.00548,661.6482,194.5335)"></circle>
    <path id="heart" class="particle"
        d="M2.9,0C2.53,0,2.2,0.18,2,0.47C1.8,0.18,1.47,0,1.1,0C0.49,0,0,0.49,0,1.1 C0,2.6,1.56,4,2,4s2-1.4,2-2.9C4,0.49,3.51,0,2.9,0z"
        fill="#5DBA72" data-svg-origin="2 2" style="transform-origin: 0px 0px; opacity: 0.3956;"
        transform="matrix(0.05338,-0.0548,0.0548,0.05338,762.65184,251.11774)"></path>
    <polygon id="cross" class="particle"
        points="4,3.5 2.5,2 4,0.5 3.5,0 2,1.5 0.5,0 0,0.5 1.5,2 0,3.5 0.5,4 2,2.5 3.5,4 " fill="#B74551"
        data-svg-origin="2 2" style="transform-origin: 0px 0px; opacity: 0.8278;"
        transform="matrix(-0.06079,-0.02595,0.02595,-0.06079,565.47658,334.93808)"></polygon>
    <circle id="circ" class="particle" cx="0" cy="0" r="1" fill="#A2CBDC" data-svg-origin="0 0"
        style="transform-origin: 0px 0px; opacity: 0.5541;"
        transform="matrix(-0.09883,0.01528,-0.01528,-0.09883,758.62,244.9119)"></circle>
    <path id="heart" class="particle"
        d="M2.9,0C2.53,0,2.2,0.18,2,0.47C1.8,0.18,1.47,0,1.1,0C0.49,0,0,0.49,0,1.1 C0,2.6,1.56,4,2,4s2-1.4,2-2.9C4,0.49,3.51,0,2.9,0z"
        fill="#F6FBFE" data-svg-origin="2 2" style="transform-origin: 0px 0px; opacity: 0.3687;"
        transform="matrix(0.06859,0.06162,-0.06162,0.06859,660.81256,179.29118)"></path>
    <polygon id="cross" class="particle"
        points="4,3.5 2.5,2 4,0.5 3.5,0 2,1.5 0.5,0 0,0.5 1.5,2 0,3.5 0.5,4 2,2.5 3.5,4 " fill="#ACE8F8"
        data-svg-origin="2 2" style="transform-origin: 0px 0px; opacity: 0.8939;"
        transform="matrix(0.03103,-0.0349,0.0349,0.03103,521.98874,207.61794)"></polygon>
    <circle id="circ" class="particle" cx="0" cy="0" r="1" fill="#E8F6F8" data-svg-origin="0 0"
        style="transform-origin: 0px 0px; opacity: 0.3927;"
        transform="matrix(-0.00873,-0.05207,0.05207,-0.00873,572.4906,335.3783)"></circle>
</svg>